<svg xmlns="http://www.w3.org/2000/svg" width="175" height="125" style="width:100%;height:100%;transform:translate3d(0,0,0)"><defs><clipPath id="a"><path d="M0 0h175v125H0z"/></clipPath></defs><g clip-path="url(#a)"><path fill="#E7352A" d="M-5.038-52.687c-1.108.443-2.105 1.218-2.991 2.325-.886.886-1.328 1.772-1.328 2.658v.996h-.664l-.998.333h-1.661c-3.765.221-9.191 1.107-16.278 2.657l-5.315 1.661c0 .443.111.997.332 1.661v.997c.222.443.444.775.666.996 0 .665.111 1.108.332 1.329 0 .222-.665.775-1.994 1.661-5.758 3.322-10.408 6.865-13.952 10.631-3.543 3.986-5.648 6.754-6.313 8.305-.442 1.107-1.328.996-2.657-.333-5.094-5.758-9.634-9.523-13.62-11.294-2.658-1.551-5.094-2.326-7.308-2.326l-1.662-.332v2.658c0 1.55-.553 2.879-1.66 3.986 0 .221-.332.664-.996 1.329l-.665.664 1.661 1.329c4.429 3.1 7.197 8.194 8.304 15.281v1.993c.222.665.443 1.218.665 1.661 1.329 7.973 3.543 13.51 6.644 16.61 2.879 2.436 5.869 4.208 8.969 5.316.665 0 1.219.22 1.661.664.443 1.771 2.326 4.54 5.647 8.304 3.544 4.43 6.977 7.531 10.299 9.302l.664.664-.332.997c-.443 1.55-.996 2.879-1.661 3.987v.664l-.332.665c0 .442 2.546 1.55 7.64 3.321 5.316 1.55 9.524 2.547 12.625 2.99.885 0 1.438.111 1.66.332h2.325a6.259 6.259 0 0 0 1.993.332c1.993.443 5.649.665 10.964.665s9.523-.222 12.623-.665c3.544 0 6.2-.443 7.972-1.328.221 0 .998-.111 2.327-.333 1.55-.443 2.435-.664 2.656-.664.444-.221.777-.332.997-.332.223 0 1.661-.443 4.32-1.329 2.214-.664 3.321-1.106 3.321-1.329.221-.221.001-1.439-.664-3.653l-.996-1.995 1.993-1.328c5.758-3.544 10.298-7.64 13.62-12.292 1.772-2.213 2.657-3.543 2.657-3.986.444-.442.775-.664.995-.664 1.329.664 3.655.997 6.977.997 8.858 0 16.167-4.43 21.926-13.288 3.543-5.094 5.647-9.856 6.311-14.285.223-.443.332-.885.332-1.328.223-.665.333-1.219.333-1.661.444-3.101.444-6.534 0-10.299-1.771-9.523-6.535-14.949-14.286-16.278-3.764-.885-7.306-.775-10.629.333-6.423 1.771-11.295 5.094-14.616 9.966l-.997.664-2.989-3.322c-3.765-3.543-7.531-6.422-11.295-8.637l-2.325-1.329c-.222-.222-.334-.443-.334-.664.221-.443.444-1.108.666-1.994l.664-2.325c-.664-1.107-4.097-2.325-10.298-3.654l-8.306-1.661H6.588a2.951 2.951 0 0 0-1.328-.332c-1.551-.221-2.325-.665-2.325-1.329.442-1.772-.666-3.432-3.324-4.983-1.55-.664-3.099-.775-4.649-.332zm72.419 27.24c3.321.886 5.757 3.101 7.308 6.644 1.549 3.544 1.882 7.862.997 12.956-.886 4.429-2.658 8.416-5.316 11.959-2.435 3.544-5.314 6.09-8.636 7.64-1.994.886-4.208 1.329-6.644 1.329-2.879-.221-4.319-.664-4.319-1.329.885-2.879 1.329-6.09 1.329-9.634 0-.885-.112-2.103-.332-3.653v-2.326c-.222-3.322-1.329-7.086-3.323-11.294-.665-1.108-.443-2.547.664-4.319 3.764-4.872 8.195-7.53 13.289-7.973l1.661-.332h1.328c.886.222 1.551.332 1.994.332z" transform="rotate(-6.496 590.888 -735.423)" style="display:block"/><path fill="#FFF" d="M.001-4.356c10.445-31.317 53.655-.916.666 40.029C-53.657-3.44-11.46-35.3.001-4.356z" transform="rotate(-6.496 550.925 -694.448)" style="display:block"/></g></svg>